<svg width="187" height="93" viewBox="0 0 187 93" fill="none" xmlns="http://www.w3.org/2000/svg">
<path fill-rule="evenodd" clip-rule="evenodd" d="M92.9999 2.94119C80.8172 2.94119 70.9412 12.8172 70.9412 24.9999C70.9412 37.1827 80.8172 47.0587 92.9999 47.0587C105.182 47.0587 115.058 37.1827 115.058 24.9999C115.058 12.8172 105.182 2.94119 92.9999 2.94119ZM68 24.9999C68 11.1928 79.1928 0 92.9999 0C106.807 0 118 11.1928 118 24.9999C118 38.807 106.807 50 92.9999 50C79.1928 50 68 38.807 68 24.9999Z" fill="#000469"/>
<path fill-rule="evenodd" clip-rule="evenodd" d="M93 0C93.8149 0 94.4756 0.659043 94.4756 1.47206V11.1891L105.702 19.3069L114.763 15.8018C115.524 15.5079 116.378 15.8842 116.673 16.6422C116.967 17.4003 116.59 18.253 115.831 18.5469L106.679 22.0866L102.521 35.1704L108.561 42.4024C109.083 43.027 108.998 43.9552 108.372 44.4757C107.746 44.9962 106.816 44.9118 106.294 44.2872L100.178 36.9658H86.0749L79.6869 44.3097C79.1528 44.9237 78.2209 44.9895 77.6054 44.4566C76.99 43.9238 76.924 42.994 77.4581 42.38L83.5466 35.3804L79.3209 22.0866L70.1696 18.5469C69.4098 18.253 69.0326 17.4003 69.3272 16.6422C69.6218 15.8842 70.4766 15.5079 71.2364 15.8018L80.2981 19.3069L91.5244 11.1891V1.47206C91.5244 0.659043 92.1851 0 93 0ZM93 13.7584L82.2422 21.5373L86.2105 34.0216H99.7895L103.758 21.5373L93 13.7584Z" fill="#000469"/>
<path d="M13.3233 72.0587C13.378 71.2851 13.173 70.6868 12.7083 70.2626C12.2504 69.8384 11.526 69.6258 10.535 69.6258C9.879 69.6258 9.31858 69.7112 8.8539 69.8822C8.38916 70.0467 8.02354 70.2797 7.75701 70.5799C7.49049 70.8748 7.32305 71.2167 7.25471 71.6067C7.1932 71.9144 7.21029 72.188 7.30596 72.4284C7.40165 72.6677 7.56908 72.8793 7.80826 73.0641C8.05429 73.249 8.35841 73.4103 8.72067 73.5471C9.08961 73.6838 9.50311 73.8035 9.96095 73.9061L11.6832 74.3164C12.681 74.5429 13.5455 74.8431 14.2767 75.2203C15.0148 75.59 15.6127 76.0377 16.0707 76.5644C16.5285 77.0848 16.8429 77.6831 17.0137 78.3605C17.1846 79.0379 17.1983 79.7976 17.0548 80.6396C16.836 81.9677 16.3132 83.1067 15.4863 84.0576C14.6663 85.0086 13.5933 85.7373 12.2675 86.2437C10.9485 86.7502 9.41432 87.0034 7.66476 87.0034C5.91523 87.0034 4.42882 86.7406 3.20553 86.2138C1.98906 85.6796 1.10747 84.875 0.560747 83.8012C0.0140201 82.7263 -0.132916 81.3715 0.119949 79.7367H4.96871C4.89354 80.4141 4.97897 80.9783 5.225 81.4303C5.47785 81.8811 5.86739 82.2241 6.39362 82.456C6.91984 82.6889 7.55541 82.8054 8.30032 82.8054C8.98372 82.8054 9.58175 82.7135 10.0943 82.5286C10.6137 82.3438 11.0271 82.0874 11.3347 81.7583C11.649 81.4303 11.8404 81.0542 11.9087 80.6289C11.9771 80.2389 11.9121 79.9002 11.7139 79.6128C11.5226 79.3254 11.1945 79.0764 10.7298 78.8638C10.272 78.6522 9.67054 78.4599 8.9256 78.2889L6.82417 77.7761C5.08832 77.3519 3.77276 76.6745 2.8775 75.7438C1.98906 74.8132 1.67469 73.5503 1.93439 71.9561C2.15308 70.6483 2.69297 69.5061 3.55406 68.5274C4.422 67.5487 5.51886 66.789 6.84466 66.2483C8.1773 65.7013 9.64319 65.4277 11.2424 65.4277C12.8689 65.4277 14.2357 65.7045 15.3428 66.259C16.4567 66.8061 17.2598 67.5796 17.7518 68.5787C18.2507 69.5713 18.3942 70.7306 18.1824 72.0587H13.3233Z" fill="#000469"/>
<path d="M17.6597 92.6491L21.2885 70.9698H26.2501L25.8092 73.6698H25.963C26.2364 73.1911 26.5986 72.7285 27.0496 72.284C27.5075 71.8395 28.0576 71.4762 28.7001 71.1963C29.3425 70.9089 30.0771 70.7646 30.904 70.7646C31.9975 70.7646 32.9713 71.0521 33.8256 71.6269C34.6798 72.2017 35.3018 73.0886 35.6913 74.2853C36.0808 75.483 36.1218 77.0088 35.8143 78.8637C35.5205 80.6502 34.9874 82.145 34.2151 83.3491C33.4497 84.5533 32.5408 85.4572 31.4884 86.0588C30.4359 86.6614 29.3322 86.9627 28.1773 86.9627C27.3845 86.9627 26.7148 86.8323 26.168 86.5727C25.6281 86.312 25.2011 85.9701 24.8866 85.5459C24.5723 85.1217 24.3535 84.6666 24.2306 84.1804H24.0871L22.6929 92.6491H17.6597ZM24.8866 78.853C24.7499 79.7024 24.7431 80.4407 24.8661 81.0711C24.9892 81.7005 25.2386 82.1898 25.6144 82.5381C25.9972 82.8811 26.4926 83.0521 27.1009 83.0521C27.7159 83.0521 28.2627 82.8811 28.741 82.5381C29.2263 82.1898 29.6329 81.7005 29.9609 81.0711C30.2889 80.4407 30.5281 79.7024 30.6785 78.853C30.8084 78.0046 30.8118 77.2695 30.6887 76.6466C30.5726 76.0237 30.3299 75.5418 29.9609 75.1988C29.5918 74.8569 29.0964 74.6859 28.4745 74.6859C27.8663 74.6859 27.3127 74.8537 26.8138 75.1892C26.3218 75.5247 25.9117 76.0034 25.5837 76.6263C25.2557 77.2492 25.0234 77.9918 24.8866 78.853Z" fill="#000469"/>
<path d="M44.474 87.0343C42.8132 87.0343 41.443 86.6924 40.3632 86.0075C39.2903 85.3237 38.5351 84.3695 38.0977 83.144C37.6603 81.9195 37.5749 80.4963 37.8414 78.8744C38.108 77.2588 38.6582 75.842 39.4919 74.624C40.3256 73.4059 41.3917 72.4582 42.6903 71.7808C43.9887 71.1034 45.4614 70.7646 47.1085 70.7646C48.7623 70.7646 50.1257 71.1076 51.1986 71.7914C52.2784 72.4753 53.037 73.4305 53.4744 74.6549C53.9186 75.8805 54.0074 77.3069 53.7409 78.9353C53.4744 80.5508 52.9208 81.9676 52.0802 83.1856C51.2396 84.3962 50.1735 85.3408 48.8818 86.0182C47.5903 86.6956 46.1209 87.0343 44.474 87.0343ZM45.0377 83.2465C45.6528 83.2465 46.203 83.0617 46.6882 82.692C47.1802 82.3234 47.5937 81.8062 47.9285 81.1427C48.2634 80.4792 48.5026 79.7088 48.6461 78.8327C48.7896 77.9704 48.8033 77.215 48.6872 76.5643C48.5778 75.9072 48.3454 75.3975 47.99 75.0353C47.6347 74.6656 47.1528 74.4808 46.5447 74.4808C45.9295 74.4808 45.376 74.6688 44.8839 75.0449C44.3919 75.4146 43.9784 75.9318 43.6435 76.5953C43.3155 77.2524 43.0798 78.0217 42.9362 78.9053C42.7927 79.7665 42.7756 80.523 42.885 81.1737C42.9943 81.8233 43.2302 82.333 43.5924 82.7027C43.9546 83.0649 44.4364 83.2465 45.0377 83.2465Z" fill="#000469"/>
<path d="M55.0068 86.7381L57.6312 70.9706H62.5005L62.0186 73.8448H62.1827C62.6405 72.8052 63.2386 72.0316 63.9766 71.5252C64.7147 71.0123 65.5143 70.7559 66.3754 70.7559C66.6077 70.7559 66.8401 70.773 67.0725 70.8072C67.3116 70.8339 67.5371 70.8755 67.749 70.93L67.0109 75.3033C66.7785 75.2135 66.4744 75.1484 66.0985 75.1077C65.7227 75.0597 65.381 75.0362 65.0735 75.0362C64.4788 75.0362 63.9254 75.1697 63.4128 75.4358C62.907 75.6965 62.4765 76.0619 62.1212 76.5342C61.7726 77 61.5436 77.5471 61.4343 78.1764L60.0197 86.7381H55.0068Z" fill="#000469"/>
<path d="M79.4019 70.9704L78.7767 74.6663H68.8434L69.4687 70.9704H79.4019ZM72.1647 67.1934H77.1775L74.7582 81.7791C74.7104 82.0879 74.7172 82.3368 74.7788 82.5292C74.847 82.714 74.9701 82.8476 75.1478 82.9288C75.3323 83.0046 75.5578 83.042 75.8244 83.042C76.0089 83.042 76.2138 83.0217 76.4394 82.98C76.6649 82.9394 76.8358 82.9085 76.9519 82.8882L77.1159 86.5114C76.8494 86.5872 76.4907 86.6727 76.0397 86.7678C75.5954 86.8704 75.076 86.9355 74.4814 86.9633C73.2786 87.0114 72.2843 86.8704 71.4983 86.5423C70.7193 86.2068 70.1691 85.6865 69.848 84.9824C69.5336 84.2772 69.4721 83.3946 69.6634 82.3336L72.1647 67.1934Z" fill="#000469"/>
<path d="M92.2797 66.5332V68.2096H83.3886V75.7531H90.8941V77.4305H83.3886V86.738H81.3679V66.5332H92.2797Z" fill="#000469"/>
<path d="M94.6803 78.8173C94.6803 77.1986 94.9978 75.7828 95.633 74.568C96.2873 73.335 97.1821 72.3905 98.3176 71.7355C99.4723 71.0613 100.771 70.7236 102.215 70.7236C103.716 70.7236 105.005 71.0709 106.082 71.7643C107.18 72.4578 107.969 73.3446 108.45 74.4238V70.9555H110.471V86.7379H108.45V83.2397C107.95 84.3189 107.151 85.2153 106.053 85.928C104.976 86.6214 103.687 86.9687 102.186 86.9687C100.762 86.9687 99.4723 86.6311 98.3176 85.9569C97.1821 85.2826 96.2873 84.3285 95.633 83.0955C94.9978 81.8625 94.6803 80.436 94.6803 78.8173ZM108.45 78.8462C108.45 77.5747 108.19 76.4571 107.67 75.4933C107.151 74.5295 106.439 73.788 105.534 73.2677C104.649 72.7473 103.668 72.4866 102.59 72.4866C101.474 72.4866 100.473 72.7377 99.5877 73.2388C98.7025 73.7399 98 74.4718 97.4804 75.4356C96.9801 76.3801 96.7298 77.5074 96.7298 78.8173C96.7298 80.108 96.9801 81.2449 97.4804 82.2279C98 83.1916 98.7025 83.9332 99.5877 84.4535C100.473 84.9546 101.474 85.2057 102.59 85.2057C103.668 85.2057 104.649 84.945 105.534 84.4247C106.439 83.9043 107.151 83.1628 107.67 82.199C108.19 81.2353 108.45 80.1177 108.45 78.8462Z" fill="#000469"/>
<path d="M120.511 86.9687C118.702 86.9687 117.22 86.5541 116.065 85.7261C114.929 84.8777 114.295 83.7312 114.16 82.2856H116.238C116.334 83.1724 116.749 83.8947 117.48 84.4535C118.23 84.9931 119.231 85.2634 120.482 85.2634C121.578 85.2634 122.435 85.0027 123.051 84.4824C123.686 83.962 124.004 83.3167 124.004 82.5463C124.004 82.0067 123.831 81.5633 123.484 81.216C123.137 80.8698 122.695 80.5995 122.156 80.4072C121.636 80.1956 120.924 79.9734 120.019 79.7426C118.846 79.4338 117.893 79.1261 117.162 78.8173C116.43 78.5085 115.805 78.0566 115.286 77.4593C114.785 76.8417 114.535 76.0233 114.535 75.0018C114.535 74.2314 114.766 73.5177 115.228 72.8627C115.69 72.2077 116.344 71.6874 117.191 71.3017C118.037 70.917 119 70.7236 120.078 70.7236C121.772 70.7236 123.137 71.1574 124.177 72.025C125.216 72.8723 125.774 74.0477 125.851 75.551H123.831C123.773 74.6257 123.408 73.8842 122.733 73.3254C122.079 72.7473 121.174 72.4578 120.019 72.4578C119 72.4578 118.172 72.6992 117.537 73.1811C116.903 73.663 116.584 74.2603 116.584 74.973C116.584 75.5895 116.768 76.1002 117.133 76.5051C117.518 76.8909 117.989 77.1986 118.548 77.4304C119.106 77.642 119.856 77.8824 120.799 78.1527C121.935 78.4604 122.839 78.7596 123.513 79.0481C124.186 79.3377 124.763 79.7618 125.245 80.3207C125.726 80.8795 125.976 81.621 125.995 82.5463C125.995 83.3936 125.765 84.1554 125.303 84.8296C124.84 85.4846 124.196 86.0049 123.368 86.3906C122.541 86.7764 121.588 86.9687 120.511 86.9687Z" fill="#000469"/>
<path d="M137.304 70.6655C138.498 70.6655 139.566 70.9166 140.508 71.4177C141.471 71.9178 142.221 72.6892 142.761 73.7299C143.318 74.7514 143.597 76.0036 143.597 77.4877V86.7375H141.606V77.7185C141.606 76.0036 141.173 74.6937 140.306 73.7876C139.46 72.8815 138.296 72.4285 136.814 72.4285C135.293 72.4285 134.082 72.9104 133.177 73.8742C132.272 74.8379 131.82 76.2536 131.82 78.1235V86.7375H129.799V65.3467H131.82V73.6434C132.32 72.6988 133.052 71.9669 134.013 71.4466C134.995 70.9262 136.092 70.6655 137.304 70.6655Z" fill="#000469"/>
<path d="M149.077 67.9768C148.673 67.9768 148.327 67.8325 148.038 67.543C147.75 67.2545 147.604 66.8976 147.604 66.4745C147.604 66.0503 147.75 65.7031 148.038 65.4338C148.327 65.1443 148.673 65 149.077 65C149.482 65 149.828 65.1443 150.116 65.4338C150.405 65.7031 150.549 66.0503 150.549 66.4745C150.549 66.8976 150.405 67.2545 150.116 67.543C149.828 67.8325 149.482 67.9768 149.077 67.9768ZM150.087 70.9546V86.737H148.067V70.9546H150.087Z" fill="#000469"/>
<path d="M161.563 86.9687C160.081 86.9687 158.743 86.6407 157.55 85.9857C156.376 85.3115 155.443 84.367 154.75 83.1532C154.076 81.9202 153.739 80.4841 153.739 78.8462C153.739 77.2082 154.086 75.7828 154.779 74.568C155.471 73.335 156.415 72.3905 157.607 71.7355C158.801 71.0613 160.138 70.7236 161.62 70.7236C163.102 70.7236 164.439 71.0613 165.633 71.7355C166.845 72.3905 167.788 73.335 168.462 74.568C169.154 75.7828 169.5 77.2082 169.5 78.8462C169.5 80.4649 169.154 81.8913 168.462 83.1243C167.768 84.3574 166.816 85.3115 165.604 85.9857C164.391 86.6407 163.045 86.9687 161.563 86.9687ZM161.563 85.2057C162.601 85.2057 163.564 84.9738 164.449 84.5112C165.334 84.0304 166.046 83.3167 166.586 82.3732C167.143 81.4094 167.422 80.2341 167.422 78.8462C167.422 77.4593 167.153 76.2925 166.614 75.349C166.075 74.3853 165.363 73.6726 164.478 73.21C163.593 72.7281 162.63 72.4866 161.592 72.4866C160.552 72.4866 159.589 72.7281 158.705 73.21C157.819 73.6726 157.107 74.3853 156.569 75.349C156.048 76.2925 155.789 77.4593 155.789 78.8462C155.789 80.2341 156.048 81.4094 156.569 82.3732C157.107 83.3167 157.809 84.0304 158.676 84.5112C159.56 84.9738 160.523 85.2057 161.563 85.2057Z" fill="#000469"/>
<path d="M180.574 70.666C182.46 70.666 184 71.2537 185.193 72.429C186.387 73.5851 186.983 75.2722 186.983 77.4882V86.738H184.991V77.719C184.991 76.0041 184.558 74.6942 183.692 73.7881C182.846 72.882 181.681 72.429 180.199 72.429C178.679 72.429 177.466 72.9109 176.562 73.8746C175.657 74.8384 175.205 76.2541 175.205 78.124V86.738H173.184V70.9556H175.205V73.6439C175.705 72.6801 176.427 71.9482 177.37 71.4471C178.313 70.9267 179.381 70.666 180.574 70.666Z" fill="#000469"/>
</svg>
