<svg width="72" height="72" viewBox="0 0 72 72" fill="none" xmlns="http://www.w3.org/2000/svg">
<path fill-rule="evenodd" clip-rule="evenodd" d="M35.7456 4.2312C18.3264 4.2312 4.2054 18.4388 4.2054 35.9649C4.2054 53.491 18.3264 67.6987 35.7456 67.6987C53.1644 67.6987 67.2854 53.491 67.2854 35.9649C67.2854 18.4388 53.1644 4.2312 35.7456 4.2312ZM0 35.9649C0 16.102 16.0038 0 35.7456 0C55.4874 0 71.4914 16.102 71.4914 35.9649C71.4914 55.8278 55.4874 71.93 35.7456 71.93C16.0038 71.93 0 55.8278 0 35.9649Z" fill="#000469"/>
<path fill-rule="evenodd" clip-rule="evenodd" d="M35.7456 0C36.9108 0 37.8554 0.948099 37.8554 2.1177V16.0967L53.9074 27.7749L66.8634 22.7325C67.9504 22.3097 69.1724 22.851 69.5934 23.9415C70.0144 25.032 69.4754 26.2588 68.3894 26.6816L55.3044 31.7738L49.3584 50.5962L57.9954 61.0001C58.7414 61.8986 58.6204 63.234 57.7254 63.9828C56.8304 64.7315 55.4994 64.6101 54.7534 63.7116L46.0094 53.179H25.8439L16.7102 63.7439C15.9465 64.6273 14.6141 64.7219 13.734 63.9553C12.854 63.1888 12.7597 61.8512 13.5234 60.9679L22.2288 50.8983L16.1869 31.7738L3.10212 26.6816C2.01572 26.2588 1.47642 25.032 1.89762 23.9415C2.31882 22.851 3.54102 22.3097 4.62742 22.7325L17.5841 27.7749L33.6358 16.0967V2.1177C33.6358 0.948099 34.5804 0 35.7456 0ZM35.7456 19.7928L20.3638 30.9835L26.0378 48.9435H45.4534L51.1274 30.9835L35.7456 19.7928Z" fill="#000469"/>
</svg>
